HIERARCHY
ROOT Hips
{
	OFFSET 0.00000 0.00000 0.00000
	CHANNELS 6 Xposition Yposition Zposition Zrotation Yrotation Xrotation 
	JOINT LHipJoint
	{
		OFFSET 0 0 0
		CHANNELS 3 Zrotation Yrotation Xrotation
		JOINT LeftHip
		{
			OFFSET 1.40252 -1.71424 0.59123
			CHANNELS 3 Zrotation Yrotation Xrotation
			JOINT LeftKnee
			{
				OFFSET 2.50071 -6.87065 0.00000
				CHANNELS 3 Zrotation Yrotation Xrotation
				JOINT LeftAnkle
				{
					OFFSET 2.50834 -6.89162 0.00000
					CHANNELS 3 Zrotation Yrotation Xrotation
					JOINT LeftToe
					{
						OFFSET 0.21528 -0.59149 1.64448
						CHANNELS 3 Zrotation Yrotation Xrotation
						End Site
						{
							OFFSET 0.00000 -0.00000 0.87921
						}
					}
				}
			}
		}
	}
	JOINT RHipJoint
	{
		OFFSET 0 0 0
		CHANNELS 3 Zrotation Yrotation Xrotation
		JOINT RightHip
		{
			OFFSET -1.53651 -1.71424 0.59123
			CHANNELS 3 Zrotation Yrotation Xrotation
			JOINT RightKnee
			{
				OFFSET -2.45783 -6.75285 0.00000
				CHANNELS 3 Zrotation Yrotation Xrotation
				JOINT RightAnkle
				{
					OFFSET -2.51921 -6.92147 0.00000
					CHANNELS 3 Zrotation Yrotation Xrotation
					JOINT RightToe
					{
						OFFSET -0.21777 -0.59831 1.59676
						CHANNELS 3 Zrotation Yrotation Xrotation
						End Site
						{
							OFFSET -0.00000 -0.00000 0.85779
						}
					}
				}
			}
		}
	}
	JOINT lowerback
	{
		OFFSET 0 0 0
		CHANNELS 3 Zrotation Yrotation Xrotation
		JOINT Chest
		{
			OFFSET 0.02212 2.07622 0.03776
			CHANNELS 3 Zrotation Yrotation Xrotation
			JOINT Chest2
			{
				OFFSET -0.00949 2.08009 -0.00123
				CHANNELS 3 Zrotation Yrotation Xrotation
				JOINT lowerneck
				{
					OFFSET 0 0 0
					CHANNELS 3 Zrotation Yrotation Xrotation
					JOINT Neck
					{
						OFFSET 0.00288 1.67184 0.11155
						CHANNELS 3 Zrotation Yrotation Xrotation
						JOINT Head
						{
							OFFSET -0.02412 1.66997 -0.22040
							CHANNELS 3 Zrotation Yrotation Xrotation
							End Site
							{
								OFFSET -0.01026 1.69043 -0.08683
							}
						}
					}
				}
				JOINT LeftCollar
				{
					OFFSET 0 0 0
					CHANNELS 3 Zrotation Yrotation Xrotation
					JOINT LeftShoulder
					{
						OFFSET 3.97941 0.74048 0.81462
CHANNELS 3 Zrotation Xrotation Yrotation
						JOINT LeftElbow
						{
OFFSET 0 -5.018340 -0.000000
CHANNELS 3 Zrotation Xrotation Yrotation
							JOINT LeftWrist
							{
OFFSET 0 -3.486900 0.000000
CHANNELS 3 Zrotation Xrotation Yrotation
								JOINT lhand
								{
									OFFSET 0 0 0
CHANNELS 3 Zrotation Xrotation Yrotation
									JOINT LFingers
									{
OFFSET 0 -0.767990 0.000000
CHANNELS 3 Zrotation Xrotation Yrotation
										End Site
										{
OFFSET 0 -0.619170 0.000000
										}
									}
								}
								JOINT LThumb
								{
OFFSET 0 0.000000 0.000000
CHANNELS 3 Zrotation Xrotation Yrotation
									End Site
									{
OFFSET 0 -0.628630 0.628630
									}
								}
							}
						}
					}
				}
				JOINT RightCollar
				{
					OFFSET 0 0 0
					CHANNELS 3 Zrotation Yrotation Xrotation
					JOINT RightShoulder
					{
						OFFSET -3.88702 1.02123 0.44091
CHANNELS 3 Zrotation Xrotation Yrotation
						JOINT RightElbow
						{
OFFSET 0 -4.701640 0.000000
CHANNELS 3 Zrotation Xrotation Yrotation
							JOINT RightWrist
							{
OFFSET 0 -3.499110 0.000000
CHANNELS 3 Zrotation Xrotation Yrotation
								JOINT rhand
								{
									OFFSET 0 0 0
CHANNELS 3 Zrotation Xrotation Yrotation
									JOINT RFingers
									{
OFFSET 0 -0.739330 0.000000
CHANNELS 3 Zrotation Xrotation Yrotation
										End Site
										{
OFFSET 0 -0.596070 0.000000
										}
									}
								}
								JOINT RThumb
								{
OFFSET 0 0.000000 0.000000
CHANNELS 3 Zrotation Xrotation Yrotation
									End Site
									{
OFFSET 0 -0.605170 0.605170
									}
								}
							}
						}
					}
				}
			}
		}
	}
}
MOTION
Frames: 10
Frame Time: 0.008333333333333333
0.953912 17.497695 -5.117302 736.796871 86.071238 25.962868 0.000000 0.000000 0.000000 -21.979354 -8.033386 -17.937091 1.191965 6.924398 19.492941 1.254971 -12.045517 -20.521729 3.944884 -12.084876 -36.035394 0.000000 0.000000 0.000000 3.643284 2.946553 -22.354340 -3.342065 -11.209133 33.012122 0.683582 -17.627129 -17.340367 -2.360224 -9.574229 27.612776 0.391914 1.018454 -2.397246 -0.828546 1.361272 -0.562061 -1.027223 0.684054 0.797390 0.559760 -0.247884 -7.830724 -5.838310 0.781747 16.060098 -1.876515 0.057844 6.179569 0.000000 0.000000 0.000000 4.519784 -0.303234 -84.907729 114.256272 -57.655162 80.841041 6.834950 -8.550318 -51.600935 0.000000 0.000000 0.000000 -7.125000 0.000000 0.000000 -64.626433 73.314170 48.087815 0.000000 0.000000 0.000000 -7.730198 9.161371 55.578977 -127.333910 -53.999926 -91.678346 -17.054634 -26.848385 9.364262 0.000000 0.000000 0.000000 7.125000 0.000000 0.000000 8.630984 39.624266 1.154365
0.851651 17.536979 -4.772475 866.535476 87.645983 155.464267 0.000000 0.000000 0.000000 -20.594174 -5.045590 -17.677622 0.805815 5.727086 15.995131 0.333812 -20.156040 -16.811648 3.998131 -12.156029 -36.288795 0.000000 0.000000 0.000000 4.553934 5.231799 -17.639875 -2.061115 -8.992323 25.771260 1.022317 -19.305237 -15.918277 -2.896821 -10.525660 30.696778 0.243827 -0.282722 -3.116340 -0.948628 -0.364259 -0.343993 -1.124515 -0.175563 1.386295 -0.332705 -0.785003 -7.994661 -4.542793 -0.082671 15.596368 -1.379208 -0.321144 6.037060 0.000000 0.000000 0.000000 2.464611 -4.563246 -85.615099 116.175309 -57.245828 82.458865 -1.712707 -18.968244 -55.692814 0.000000 0.000000 0.000000 -7.125000 0.000000 0.000000 -81.197687 71.371025 61.287361 0.000000 0.000000 0.000000 -11.898750 5.218411 50.381655 -135.621064 -50.457904 -98.240496 -18.944262 -18.723284 12.732547 0.000000 0.000000 0.000000 7.125000 0.000000 0.000000 7.599887 43.286889 0.323547
0.768708 17.526630 -4.384211 883.684110 84.816949 172.295179 0.000000 0.000000 0.000000 -19.265242 -5.343840 -16.501919 0.568083 4.825522 13.411904 -0.298308 -22.613067 -13.661990 3.517426 -11.488869 -33.947019 0.000000 0.000000 0.000000 7.183388 4.422137 -15.780953 -1.905113 -8.663411 24.749430 1.136735 -22.266597 -21.778187 -2.341106 -9.542592 27.508315 -0.176451 -0.395285 -3.418652 -1.488147 -0.482348 -0.413715 -1.449228 -0.232424 1.480574 -0.808632 -1.497080 -7.675666 -3.013336 -1.299914 14.629930 -0.897817 -0.826117 5.665676 0.000000 0.000000 0.000000 1.984567 -5.561804 -84.233260 117.559288 -56.925742 83.620644 5.310099 -13.071318 -54.244159 0.000000 0.000000 0.000000 -7.125000 0.000000 0.000000 -73.967546 73.554542 56.912747 0.000000 0.000000 0.000000 -13.762511 0.827836 42.021334 -137.553779 -49.454211 -99.721037 -19.953744 -6.322998 13.703163 0.000000 0.000000 0.000000 7.125000 0.000000 0.000000 6.884376 44.412253 0.100508
0.646855 17.502665 -3.996182 874.907968 83.119870 163.584561 0.000000 0.000000 0.000000 -19.619788 -6.006639 -16.755144 0.529923 4.662271 12.948211 -1.044026 -24.637121 -9.322906 2.573195 -9.965000 -28.867606 0.000000 0.000000 0.000000 7.681894 0.435453 -14.200342 -1.198638 -6.943102 19.548218 1.076617 -23.418604 -24.870082 -2.584332 -9.986905 28.936780 -1.558789 0.264877 -3.025876 -2.550762 0.464046 -0.968712 -1.724299 0.248271 0.711586 -1.371941 -2.560162 -6.798148 -1.518049 -2.951718 13.454371 -0.431115 -1.555599 5.162808 0.000000 0.000000 0.000000 2.622638 -3.234394 -80.221827 119.876047 -56.342739 85.555746 9.854773 -9.277620 -52.007651 0.000000 0.000000 0.000000 -7.125000 0.000000 0.000000 -64.259539 74.590401 49.157768 0.000000 0.000000 0.000000 -11.619375 -2.070215 32.411446 -135.399523 -50.569399 -98.069710 -20.502532 6.386168 12.593666 0.000000 0.000000 0.000000 7.125000 0.000000 0.000000 6.171953 43.310168 0.257784
0.540260 17.456384 -3.498946 889.814035 83.336704 178.201309 0.000000 0.000000 0.000000 -15.152859 -8.345889 -19.407028 1.023650 6.431996 18.044598 -0.685410 -22.839462 -10.597047 2.604375 -10.025008 -29.058052 0.000000 0.000000 0.000000 11.424074 0.857094 -13.539030 -1.016861 -6.415326 17.994397 1.013746 -23.597744 -25.818497 -2.574559 -9.971420 28.884991 -0.482076 1.786337 -2.802749 -2.785161 2.455967 -1.075232 -2.505664 1.243689 0.571530 -2.208208 -3.931090 -5.981130 0.134383 -4.980450 11.959750 0.117346 -2.493947 4.626328 0.000000 0.000000 0.000000 4.206259 -0.520370 -75.123044 120.042610 -56.298474 85.694358 14.317607 -9.791103 -50.705944 0.000000 0.000000 0.000000 -7.125000 0.000000 0.000000 -56.990861 75.780383 44.019864 0.000000 0.000000 0.000000 -5.243925 -3.690214 24.463139 -130.308408 -52.864833 -94.070407 -24.309607 15.193287 9.571205 0.000000 0.000000 0.000000 7.125000 0.000000 0.000000 2.353029 40.447602 0.253672
0.389417 17.408840 -3.055045 912.264437 82.028303 200.082853 0.000000 0.000000 0.000000 -10.365981 -10.640926 -24.060633 2.197132 9.252146 26.597118 -0.234174 -18.453597 -10.759316 1.588885 -7.941683 -22.542231 0.000000 0.000000 0.000000 16.387084 -1.511420 -15.025093 -1.097744 -6.657663 18.705052 0.713545 -22.075759 -25.689923 -2.124379 -9.119627 26.170803 1.739608 2.929336 -2.279603 -2.073391 3.898929 -0.983794 -2.987874 1.955228 0.526690 -2.382430 -5.184389 -5.742231 0.102603 -6.667359 10.689209 0.065096 -3.339828 4.673123 0.000000 0.000000 0.000000 4.793662 3.875232 -69.212139 118.546677 -56.684874 84.446980 16.137392 -9.171401 -51.432942 0.000000 0.000000 0.000000 -7.125000 0.000000 0.000000 -58.648308 76.800693 46.496827 0.000000 0.000000 0.000000 1.393913 -4.653569 19.815167 -120.847511 -56.065170 -86.359851 -30.269949 21.879656 8.290299 0.000000 0.000000 0.000000 7.125000 0.000000 0.000000 -2.972160 39.539936 -0.399340
0.239926 17.243317 -2.620843 922.435085 79.375499 208.975048 0.000000 0.000000 0.000000 -7.296860 -8.633261 -31.432574 4.350557 12.604214 37.917573 0.023966 -14.488256 -10.459474 0.800073 -5.703213 -15.927266 0.000000 0.000000 0.000000 20.594602 -4.091988 -15.897139 -1.225251 -7.019799 19.774369 0.393985 -20.843995 -26.389466 -1.885594 -8.623561 24.624736 2.331032 3.599397 -1.631029 -0.608409 4.767174 -0.455494 -1.809914 2.389017 0.686029 -3.142590 -6.350525 -5.440299 0.642902 -8.239946 9.678126 0.308977 -4.125139 4.336502 0.000000 0.000000 0.000000 4.508023 8.365289 -65.071588 117.583908 -56.920041 83.641280 25.640812 -1.495849 -54.151575 0.000000 0.000000 0.000000 -7.125000 0.000000 0.000000 -70.959542 81.428191 62.586627 0.000000 0.000000 0.000000 4.580636 -6.196311 18.367645 -103.849179 -59.236470 -71.960754 -35.175904 21.438552 7.763686 0.000000 0.000000 0.000000 7.125000 0.000000 0.000000 -7.272934 39.349746 -1.019286
0.139025 17.117422 -2.271024 928.071472 77.626578 212.782713 0.000000 0.000000 0.000000 -5.334511 -7.804880 -36.250487 6.666971 15.041298 47.596782 0.235754 -9.878024 -10.367777 1.509062 -7.757695 -21.980737 0.000000 0.000000 0.000000 23.783117 -5.959227 -16.887656 -1.601366 -7.979601 22.652992 0.057995 -19.431866 -27.024143 -1.878637 -8.608370 24.577912 2.659077 4.441512 -0.311620 0.643554 5.916036 0.139515 -0.765679 2.967644 0.516721 -3.508201 -7.578094 -5.197485 1.310875 -9.938256 8.195814 0.529603 -4.957459 3.861136 0.000000 0.000000 0.000000 5.251129 11.844663 -63.301135 117.360968 -56.973095 83.454497 28.324088 -2.986879 -55.372764 0.000000 0.000000 0.000000 -7.125000 0.000000 0.000000 -81.714405 82.483568 74.143229 0.000000 0.000000 0.000000 5.655390 -9.555920 19.980106 -81.399644 -59.688459 -52.561375 -36.741723 20.022377 6.076795 0.000000 0.000000 0.000000 7.125000 0.000000 0.000000 -8.532686 37.423430 -1.605262
0.088902 17.014230 -2.034018 929.223935 76.818437 213.324983 0.000000 0.000000 0.000000 -5.143401 -8.639210 -38.863296 8.261926 16.307698 53.499352 0.101074 -11.493622 -9.453366 1.044987 -6.484083 -18.201692 0.000000 0.000000 0.000000 25.141685 -8.265257 -19.483395 -2.128684 -9.127766 26.196664 -0.208611 -17.942315 -27.119549 -1.478233 -7.680390 21.748332 2.478152 5.650650 0.047715 1.418583 7.547386 0.363890 0.115343 3.787672 0.472823 -3.841769 -9.048558 -5.181713 1.795156 -11.922029 6.804271 0.660859 -5.938284 3.483563 0.000000 0.000000 0.000000 5.999730 13.874350 -63.392695 118.194326 -56.772153 84.152415 27.146237 -4.934500 -55.966433 0.000000 0.000000 0.000000 -7.125000 0.000000 0.000000 -84.601904 81.954909 76.460457 0.000000 0.000000 0.000000 5.989851 -14.986240 21.673234 -66.590596 -57.818888 -39.875960 -36.372008 23.314655 4.834002 0.000000 0.000000 0.000000 7.125000 0.000000 0.000000 -8.128392 35.875930 -1.837207
0.098936 16.958853 -1.904692 929.164184 76.080759 213.124705 0.000000 0.000000 0.000000 -4.895252 -11.790494 -38.518312 8.954727 16.778516 55.933450 -0.330975 -12.089032 -2.591504 0.135135 2.230754 6.150057 0.000000 0.000000 0.000000 25.892544 -9.700736 -21.334615 -2.556478 -9.939820 28.782079 -0.378416 -16.930053 -27.172037 -0.842985 -5.851154 16.354638 2.689559 6.672069 -0.289620 2.054706 8.902136 0.666776 0.725043 4.476412 0.925277 -4.519441 -10.333315 -5.113598 2.617470 -13.635479 5.176107 0.977839 -6.782448 3.086195 0.000000 0.000000 0.000000 6.708918 14.116228 -64.282750 119.561892 -56.425220 85.294102 25.750160 -7.076225 -55.160505 0.000000 0.000000 0.000000 -7.125000 0.000000 0.000000 -77.661801 81.506374 69.146894 0.000000 0.000000 0.000000 6.203681 -22.444117 22.657824 -60.662940 -56.482364 -34.893570 -38.737146 28.978564 5.108881 0.000000 0.000000 0.000000 7.125000 0.000000 0.000000 -10.146739 36.355813 -2.183389
